<?xml version="1.0" encoding="UTF-8" standalone="no"?>
<svg width="23px" height="23px" viewBox="0 0 23 23" version="1.1" xmlns="http://www.w3.org/2000/svg" xmlns:xlink="http://www.w3.org/1999/xlink">
    <!-- Generator: Sketch 41.1 (35376) - http://www.bohemiancoding.com/sketch -->
    <title>Page 1</title>
    <desc>Created with Sketch.</desc>
    <defs></defs>
    <g id="v2" stroke="none" stroke-width="1" fill="none" fill-rule="evenodd" stroke-linecap="round" stroke-linejoin="round">
        <g id="Nav---Expert-View" transform="translate(-1204.000000, -30.000000)" stroke="#2A2F30" stroke-width="2">
            <g id="Group">
                <g id="Group-4" transform="translate(1205.000000, 21.000000)">
                    <path d="M2.41947958,10.0000588 C1.77939969,9.99557444 1.1636798,10.2475423 0.709799876,10.6996271 C0.255919955,11.1517119 -3.55271368e-15,11.7660764 -3.55271368e-15,12.4065065 L-3.55271368e-15,23.7192767 C-3.55271368e-15,23.8134494 0.00559999902,23.9065009 0.017359997,24.0006736 L-3.55271368e-15,31 C1.60355972,29.3816878 3.20683944,27.7779499 4.81151916,26.135534 L18.5805168,26.135534 C19.2214366,26.1377762 19.8374365,25.8838464 20.2913165,25.4306405 C20.7451964,24.9774346 21.0011163,24.3608279 20.9999963,23.7192767 L20.9999963,12.4065065 C20.9999963,11.7660764 20.7440764,11.1505908 20.2901965,10.6996271 C19.8363165,10.2475423 19.2205966,9.99557444 18.5805168,10.0000588 L2.41947958,10.0000588 Z" id="Page-1" transform="translate(10.500000, 20.500000) scale(-1, 1) translate(-10.500000, -20.500000) "></path>
                </g>
            </g>
        </g>
    </g>
</svg>